<?xml version="1.0" encoding="UTF-8" standalone="no"?>
<!DOCTYPE svg PUBLIC "-//W3C//DTD SVG 1.1//EN" "http://www.w3.org/Graphics/SVG/1.1/DTD/svg11.dtd">
<svg width="100%" height="100%" viewBox="0 0 3420 702" version="1.1" xmlns="http://www.w3.org/2000/svg" xmlns:xlink="http://www.w3.org/1999/xlink" xml:space="preserve" xmlns:serif="http://www.serif.com/" style="fill-rule:evenodd;clip-rule:evenodd;stroke-linejoin:round;stroke-miterlimit:2;">
    <g id="Artboard1" transform="matrix(1.18664,0,0,0.884654,-693.629,-4676.79)">
        <rect x="584.532" y="5286.58" width="2881.95" height="792.536" style="fill:none;"/>
        <clipPath id="_clip1">
            <rect x="584.532" y="5286.58" width="2881.95" height="792.536"/>
        </clipPath>
        <g clip-path="url(#_clip1)">
            <g transform="matrix(4.87938,0,0,12.6145,197.295,1137.73)">
                <rect x="118.073" y="346.598" width="6.801" height="29.799" style="fill:rgb(65,56,104);fill-rule:nonzero;"/>
            </g>
            <g transform="matrix(2.98776e-16,-6.545,16.6161,1.36475e-15,-5139.51,6491.34)">
                <rect x="118.073" y="346.598" width="6.801" height="29.799" style="fill:rgb(65,56,104);fill-rule:nonzero;"/>
            </g>
            <g transform="matrix(2.98776e-16,-6.545,13.3911,1.09987e-15,-3904.63,6609.73)">
                <rect x="118.073" y="346.598" width="6.801" height="29.799" style="fill:rgb(65,56,104);fill-rule:nonzero;"/>
            </g>
            <g transform="matrix(2.98776e-16,-6.545,13.3914,1.0999e-15,-4021.84,6369.57)">
                <rect x="118.073" y="346.598" width="6.801" height="29.799" style="fill:rgb(65,56,104);fill-rule:nonzero;"/>
            </g>
            <g transform="matrix(4.87938,0,0,21.0819,249.979,-1902.8)">
                <rect x="118.073" y="346.598" width="6.801" height="29.799" style="fill:rgb(65,56,104);fill-rule:nonzero;"/>
            </g>
            <g transform="matrix(4.87938,0,0,22.2874,329.467,-2384.77)">
                <rect x="118.073" y="346.598" width="6.801" height="29.799" style="fill:rgb(65,56,104);fill-rule:nonzero;"/>
            </g>
            <g transform="matrix(4.87938,0,0,6.545,188.868,3578.96)">
                <rect x="118.073" y="326.906" width="6.801" height="12.891" style="fill:rgb(65,56,104);fill-rule:nonzero;"/>
            </g>
            <g transform="matrix(4.87938,0,0,6.545,188.868,3578.96)">
                <rect x="144.563" y="300.416" width="12.892" height="6.8" style="fill:rgb(65,56,104);fill-rule:nonzero;"/>
            </g>
            <g transform="matrix(4.87938,0,0,6.545,188.868,3578.96)">
                <path d="M158.758,336.732C158.758,339.144 156.802,341.099 154.39,341.099L127.938,341.099C125.526,341.099 123.57,339.144 123.57,336.732L123.57,310.28C123.57,307.868 125.526,305.911 127.938,305.911L154.39,305.911C156.802,305.911 158.758,307.868 158.758,310.28L158.758,336.732Z" style="fill:white;fill-rule:nonzero;"/>
            </g>
            <g transform="matrix(0.533062,0,0,0.782304,400.497,2075.32)">
                <path d="M1159.6,4426.33C1159.6,4406.44 1141.96,4390.32 1120.19,4390.32C1022.16,4390.32 768.128,4390.32 670.091,4390.32C648.327,4390.32 630.684,4406.44 630.684,4426.33C630.684,4515.48 630.684,4745.65 630.684,4834.8C630.684,4854.69 648.327,4870.82 670.091,4870.82C768.128,4870.82 1022.16,4870.82 1120.19,4870.82C1141.96,4870.82 1159.6,4854.69 1159.6,4834.8C1159.6,4745.65 1159.6,4515.48 1159.6,4426.33Z" style="fill:rgb(185,196,225);"/>
                <path d="M1209.36,4426.33C1209.36,4381.32 1169.44,4344.83 1120.19,4344.83C1022.16,4344.83 768.128,4344.83 670.091,4344.83C620.844,4344.83 580.922,4381.32 580.922,4426.33C580.922,4515.48 580.922,4745.65 580.922,4834.8C580.922,4879.81 620.844,4916.3 670.091,4916.3C768.128,4916.3 1022.16,4916.3 1120.19,4916.3C1169.44,4916.3 1209.36,4879.81 1209.36,4834.8L1209.36,4426.33ZM1159.6,4426.33C1159.6,4406.44 1141.96,4390.32 1120.19,4390.32C1022.16,4390.32 768.128,4390.32 670.091,4390.32C648.327,4390.32 630.684,4406.44 630.684,4426.33C630.684,4515.48 630.684,4745.65 630.684,4834.8C630.684,4854.69 648.327,4870.82 670.091,4870.82C768.128,4870.82 1022.16,4870.82 1120.19,4870.82C1141.96,4870.82 1159.6,4854.69 1159.6,4834.8C1159.6,4745.65 1159.6,4515.48 1159.6,4426.33Z" style="fill:rgb(65,56,104);"/>
            </g>
            <g transform="matrix(0.788333,0,0,0.775085,139.726,1293.01)">
                <ellipse cx="954.534" cy="5688.07" rx="79.093" ry="88.112" style="fill:white;"/>
            </g>
            <g transform="matrix(4.87938,0,0,6.545,57.8269,3568.83)">
                <path d="M168.037,376.397C168.037,380.363 164.821,383.58 160.854,383.58C156.888,383.58 153.671,380.363 153.671,376.397C153.671,372.429 156.888,369.212 160.854,369.212C164.821,369.212 168.037,372.429 168.037,376.397Z" style="fill:rgb(65,56,104);fill-rule:nonzero;"/>
            </g>
            <g transform="matrix(4.87938,0,0,6.545,137.314,2876.48)">
                <path d="M168.037,376.397C168.037,380.363 164.821,383.58 160.854,383.58C156.888,383.58 153.671,380.363 153.671,376.397C153.671,372.429 156.888,369.212 160.854,369.212C164.821,369.212 168.037,372.429 168.037,376.397Z" style="fill:rgb(65,56,104);fill-rule:nonzero;"/>
            </g>
            <g transform="matrix(4.87938,0,0,6.545,350.859,3230.19)">
                <path d="M168.037,376.397C168.037,380.363 164.821,383.58 160.854,383.58C156.888,383.58 153.671,380.363 153.671,376.397C153.671,372.429 156.888,369.212 160.854,369.212C164.821,369.212 168.037,372.429 168.037,376.397Z" style="fill:rgb(65,56,104);fill-rule:nonzero;"/>
            </g>
            <g transform="matrix(4.87938,0,0,6.545,-165.287,3230.19)">
                <path d="M168.037,376.397C168.037,380.363 164.821,383.58 160.854,383.58C156.888,383.58 153.671,380.363 153.671,376.397C153.671,372.429 156.888,369.212 160.854,369.212C164.821,369.212 168.037,372.429 168.037,376.397Z" style="fill:rgb(65,56,104);fill-rule:nonzero;"/>
            </g>
            <g transform="matrix(0.36987,0,0,0.37137,361.417,4301.61)">
                <path d="M1565.8,3937.45C1565.8,3943.75 1565.61,3949.1 1565.23,3953.51C1564.85,3957.92 1564.29,3961.7 1563.53,3964.85C1562.77,3968 1561.77,3970.71 1560.51,3972.97C1559.25,3975.24 1557.23,3977.82 1554.46,3980.72C1551.69,3983.62 1546.34,3987.33 1538.4,3991.87C1530.46,3996.4 1520.76,4000.75 1509.3,4004.91C1497.84,4009.06 1484.74,4012.53 1470,4015.3C1455.26,4018.07 1439.33,4019.46 1422.19,4019.46C1388.69,4019.46 1358.45,4014.29 1331.5,4003.96C1304.54,3993.63 1281.61,3978.2 1262.72,3957.67C1243.82,3937.14 1229.34,3911.5 1219.26,3880.76C1209.18,3850.03 1204.14,3814.25 1204.14,3773.44C1204.14,3731.87 1209.68,3694.96 1220.77,3662.71C1231.86,3630.47 1247.35,3603.38 1267.25,3581.46C1287.15,3559.55 1311.03,3542.92 1338.87,3531.58C1366.7,3520.24 1397.38,3514.57 1430.88,3514.57C1444.49,3514.57 1457.59,3515.71 1470.19,3517.97C1482.78,3520.24 1494.44,3523.2 1505.14,3526.86C1515.85,3530.51 1525.49,3534.73 1534.05,3539.52C1542.62,3544.3 1548.6,3548.4 1552,3551.8C1555.4,3555.2 1557.74,3558.03 1559,3560.3C1560.26,3562.57 1561.26,3565.47 1562.02,3568.99C1562.77,3572.52 1563.34,3576.68 1563.72,3581.46C1564.1,3586.25 1564.29,3592.17 1564.29,3599.22C1564.29,3606.78 1564.03,3613.21 1563.53,3618.5C1563.03,3623.79 1562.14,3628.07 1560.88,3631.35C1559.62,3634.62 1558.11,3637.01 1556.35,3638.53C1554.59,3640.04 1552.57,3640.79 1550.3,3640.79C1546.52,3640.79 1541.74,3638.59 1535.94,3634.18C1530.15,3629.77 1522.65,3624.86 1513.46,3619.44C1504.26,3614.03 1493.3,3609.11 1480.58,3604.7C1467.86,3600.3 1452.68,3598.09 1435.04,3598.09C1415.64,3598.09 1398.32,3602.06 1383.08,3609.99C1367.84,3617.93 1354.86,3629.27 1344.16,3644.01C1333.45,3658.74 1325.32,3676.57 1319.78,3697.48C1314.24,3718.39 1311.47,3741.95 1311.47,3768.15C1311.47,3796.87 1314.43,3821.75 1320.35,3842.78C1326.27,3863.82 1334.71,3881.14 1345.67,3894.75C1356.63,3908.35 1369.85,3918.49 1385.35,3925.17C1400.84,3931.85 1418.29,3935.18 1437.69,3935.18C1455.32,3935.18 1470.57,3933.11 1483.41,3928.95C1496.26,3924.79 1507.29,3920.19 1516.48,3915.15C1525.68,3910.12 1533.23,3905.58 1539.15,3901.55C1545.08,3897.52 1549.67,3895.5 1552.95,3895.5C1555.47,3895.5 1557.48,3896.01 1559,3897.01C1560.51,3898.02 1561.77,3900.04 1562.77,3903.06C1563.78,3906.08 1564.54,3910.3 1565.04,3915.72C1565.55,3921.14 1565.8,3928.38 1565.8,3937.45Z" style="fill:rgb(65,56,104);fill-rule:nonzero;"/>
            </g>
            <g transform="matrix(10.3672,0,0,13.9061,-14718.2,811.323)">
                <path d="M1541.71,335.394L1541.71,357.494C1541.71,364.243 1545.2,369.137 1554.15,369.137L1567.6,369.137L1567.6,363.244L1554.5,363.244C1549.2,363.244 1547.6,360.694 1547.6,357.444L1547.6,335.394L1541.71,335.394Z" style="fill:rgb(65,56,104);fill-rule:nonzero;"/>
                <path d="M1572.86,342.744L1572.86,369.137L1578.15,369.137L1578.15,342.744L1572.86,342.744ZM1572.86,332.794L1572.86,338.937L1578.2,338.937L1578.2,332.794L1572.86,332.794Z" style="fill:rgb(65,56,104);fill-rule:nonzero;"/>
                <path d="M1583.11,342.744L1583.11,347.837L1586.71,347.837L1586.71,360.042C1586.71,366.94 1589.05,369.137 1594.5,369.137L1599.25,369.137L1599.25,364.294L1595.6,364.294C1593.1,364.294 1592.05,363.293 1592.05,360.342L1592.05,347.837L1599.35,347.837L1599.35,342.744L1592.05,342.744L1592.05,336.494L1586.71,336.494L1586.71,342.744L1583.11,342.744Z" style="fill:rgb(65,56,104);fill-rule:nonzero;"/>
                <path d="M1613.15,342.744C1606.55,342.744 1603.96,346.439 1603.96,351.441L1603.96,360.44C1603.96,365.442 1606.55,369.137 1613.15,369.137L1629.3,369.137L1629.3,363.994L1613.15,363.994C1610.25,363.994 1609.1,362.442 1609.1,360.34L1609.1,358.437L1621.65,358.437C1628.15,358.437 1630.6,355.692 1630.6,350.84C1630.6,345.74 1627.95,342.744 1621.7,342.744L1613.15,342.744ZM1609.1,351.491C1609.1,349.439 1610.25,347.837 1613.15,347.837L1621.65,347.837C1624.26,347.837 1625.41,349.139 1625.41,351.141C1625.41,353.092 1624.36,354.294 1621.51,354.294L1609.1,354.294L1609.1,351.491Z" style="fill:rgb(65,56,104);fill-rule:nonzero;"/>
                <path d="M1651.4,335.394C1641.6,335.394 1636.16,340.938 1636.16,352.29C1636.16,363.593 1641.55,369.137 1651.4,369.137L1664.45,369.137L1664.45,363.244L1651.4,363.244C1644.85,363.244 1642.05,359.993 1642.05,352.29C1642.05,344.538 1644.9,341.287 1651.4,341.287L1664.45,341.287L1664.45,335.394L1651.4,335.394Z" style="fill:rgb(65,56,104);fill-rule:nonzero;"/>
                <path d="M1681.4,342.744C1674.35,342.744 1669.96,347.038 1669.96,355.941C1669.96,364.843 1674.35,369.137 1681.4,369.137L1686.95,369.137C1693.95,369.137 1698.4,364.843 1698.4,355.941C1698.4,347.038 1693.95,342.744 1686.95,342.744L1681.4,342.744ZM1686.45,347.837C1691.01,347.837 1693.06,350.238 1693.06,355.941C1693.06,361.643 1691.01,363.994 1686.45,363.994L1681.9,363.994C1677.3,363.994 1675.3,361.643 1675.3,355.941C1675.3,350.238 1677.3,347.837 1681.9,347.837L1686.45,347.837Z" style="fill:rgb(65,56,104);fill-rule:nonzero;"/>
                <path d="M1711.85,342.744C1706.65,342.744 1704.71,345.141 1704.71,350.437L1704.71,369.137L1710,369.137L1710,351.237C1710,348.937 1711.05,347.837 1713.4,347.837L1722.7,347.837L1722.7,342.744L1711.85,342.744Z" style="fill:rgb(65,56,104);fill-rule:nonzero;"/>
                <path d="M1736.55,342.744C1729.95,342.744 1727.36,346.439 1727.36,351.441L1727.36,360.44C1727.36,365.442 1729.95,369.137 1736.55,369.137L1752.7,369.137L1752.7,363.994L1736.55,363.994C1733.65,363.994 1732.5,362.442 1732.5,360.34L1732.5,358.437L1745.06,358.437C1751.55,358.437 1754,355.692 1754,350.84C1754,345.74 1751.35,342.744 1745.11,342.744L1736.55,342.744ZM1732.5,351.491C1732.5,349.439 1733.65,347.837 1736.55,347.837L1745.06,347.837C1747.66,347.837 1748.81,349.139 1748.81,351.141C1748.81,353.092 1747.76,354.294 1744.9,354.294L1732.5,354.294L1732.5,351.491Z" style="fill:rgb(65,56,104);fill-rule:nonzero;"/>
            </g>
        </g>
    </g>
</svg>
